<svg width="49" height="47" viewBox="0 0 49 47" fill="none" xmlns="http://www.w3.org/2000/svg">
<path d="M29.1895 23.5C29.1895 25.9843 27.09 27.998 24.5 27.998C21.91 27.998 19.8105 25.9843 19.8105 23.5C19.8105 21.0157 21.91 19.002 24.5 19.002C27.09 19.002 29.1895 21.0157 29.1895 23.5Z" fill="#040100" fill-opacity="0.8"/>
<path d="M35.4665 15.5416C35.2411 14.9556 34.8815 14.4253 34.4142 13.99C33.9603 13.5418 33.4078 13.1968 32.7966 12.9806C32.3008 12.7959 31.5562 12.5761 30.1845 12.5162C28.7008 12.4513 28.2559 12.4373 24.4995 12.4373C20.7428 12.4373 20.298 12.451 18.8146 12.5159C17.4429 12.5761 16.6979 12.7959 16.2025 12.9806C15.5913 13.1968 15.0384 13.5418 14.5849 13.99C14.1176 14.4253 13.758 14.9553 13.5322 15.5416C13.3397 16.0171 13.1105 16.7317 13.0481 18.0473C12.9804 19.4702 12.9658 19.8969 12.9658 23.5003C12.9658 27.1033 12.9804 27.53 13.0481 28.9532C13.1105 30.2689 13.3397 30.9832 13.5322 31.4586C13.758 32.0449 14.1172 32.5749 14.5845 33.0102C15.0384 33.4585 15.5909 33.8034 16.2022 34.0196C16.6979 34.2047 17.4429 34.4245 18.8146 34.4844C20.298 34.5493 20.7424 34.5629 24.4992 34.5629C28.2563 34.5629 28.7011 34.5493 30.1842 34.4844C31.5558 34.4245 32.3008 34.2047 32.7966 34.0196C34.0235 33.5657 34.9932 32.6355 35.4665 31.4586C35.6591 30.9832 35.8882 30.2689 35.951 28.9532C36.0187 27.53 36.0329 27.1033 36.0329 23.5003C36.0329 19.8969 36.0187 19.4702 35.951 18.0473C35.8886 16.7317 35.6594 16.0171 35.4665 15.5416V15.5416ZM24.4995 30.4292C20.5095 30.4292 17.2751 27.3271 17.2751 23.4999C17.2751 19.6728 20.5095 16.5707 24.4995 16.5707C28.4892 16.5707 31.7236 19.6728 31.7236 23.4999C31.7236 27.3271 28.4892 30.4292 24.4995 30.4292ZM32.0092 17.9161C31.0769 17.9161 30.321 17.191 30.321 16.2967C30.321 15.4024 31.0769 14.6774 32.0092 14.6774C32.9416 14.6774 33.6975 15.4024 33.6975 16.2967C33.6971 17.191 32.9416 17.9161 32.0092 17.9161Z" fill="#040100" fill-opacity="0.8"/>
<path d="M24.5 0C10.9711 0 0 10.5233 0 23.5C0 36.4767 10.9711 47 24.5 47C38.0289 47 49 36.4767 49 23.5C49 10.5233 38.0289 0 24.5 0ZM38.4835 29.0634C38.4155 30.4999 38.1773 31.4806 37.8297 32.339C37.0988 34.1517 35.6049 35.5846 33.7152 36.2856C32.8206 36.6191 31.7977 36.8471 30.3005 36.9127C28.8003 36.9784 28.321 36.9941 24.5004 36.9941C20.6794 36.9941 20.2005 36.9784 18.6999 36.9127C17.2026 36.8471 16.1798 36.6191 15.2852 36.2856C14.3461 35.9467 13.496 35.4157 12.7932 34.729C12.0777 34.0552 11.524 33.2394 11.1707 32.339C10.8231 31.4809 10.5849 30.4999 10.5169 29.0638C10.4477 27.6244 10.4316 27.1647 10.4316 23.5C10.4316 19.8353 10.4477 19.3756 10.5165 17.9366C10.5845 16.5001 10.8223 15.5194 11.17 14.661C11.5233 13.7606 12.0773 12.9448 12.7932 12.271C13.4956 11.5843 14.3461 11.0533 15.2848 10.7144C16.1798 10.3809 17.2023 10.1529 18.6999 10.0873C20.2001 10.0216 20.6794 10.0059 24.5 10.0059C28.3206 10.0059 28.7999 10.0216 30.3001 10.0876C31.7977 10.1529 32.8202 10.3809 33.7152 10.7141C34.6539 11.0529 35.5044 11.5843 36.2072 12.271C36.9227 12.9452 37.4767 13.7606 37.8297 14.661C38.1777 15.5194 38.4155 16.5001 38.4839 17.9366C38.5523 19.3756 38.5684 19.8353 38.5684 23.5C38.5684 27.1647 38.5523 27.6244 38.4835 29.0634V29.0634Z" fill="#040100" fill-opacity="0.8"/>
</svg>
