<svg id="Layer_1" enable-background="new 0 0 463.99 463.99" height="512" viewBox="0 0 463.99 463.99" width="512" xmlns="http://www.w3.org/2000/svg"><path d="m382.964 126.799c-2.718-1.749-3.588-5.271-1.999-8.085 6.929-12.276 1.517-28.435-11.664-33.872-2.628-1.084-4.167-3.836-3.646-6.631 2.75-14.755-9.206-28.35-23.753-28.251-3.104.021-5.687-2.366-5.968-5.457-1.426-15.731-18.385-25.608-32.714-19.906-3.312 1.318-7.112-.473-8.007-3.923-4.222-16.275-24.663-23.198-37.938-12.694-2.398 1.897-5.865 1.569-7.974-.646-9.322-9.792-25.348-9.774-34.65.04-2.141 2.259-5.609 2.443-8.086.559-12.484-9.497-32.676-5.276-37.44 12.851-.908 3.456-4.712 5.326-8.01 3.951-14.409-6.008-31.604 3.952-33.055 19.768-.283 3.09-2.864 5.478-5.967 5.455-14.569-.107-26.495 13.521-23.757 28.252.52 2.795-1.018 5.547-3.646 6.63-13.181 5.436-18.595 21.595-11.666 33.873 1.589 2.814.719 6.337-1.999 8.085-19.236 12.377-11.752 42.103 10.769 44.091 7.726.879 11.8 6.471 11.8 12.33v11.52c0 69.43 56.28 125.71 125.71 125.71h5.38c69.43 0 125.71-56.28 125.71-125.71 0-8.724 0-6.732 0-11.52 0-6.5 5.05-11.8 11.53-12.3 23.892-2.718 29.627-32.161 11.04-44.12z" fill="#d6a68e"/><path d="m380.965 118.714c-1.589 2.814-.719 6.337 1.999 8.085 19.237 12.377 11.752 42.103-10.769 44.091-7.835.871-11.8 6.605-11.8 12.33v3.35c-13.3-60.66-67.62-104.05-129.4-103.58-61.05.46-114.27 43.64-127.4 103.58v-3.35c0-5.878-4.095-11.474-11.8-12.33-22.496-1.986-30.034-31.696-10.769-44.091 2.718-1.749 3.588-5.271 1.999-8.085-6.93-12.278-1.515-28.437 11.666-33.873 2.628-1.084 4.165-3.835 3.646-6.631-2.738-14.732 9.188-28.359 23.757-28.252 3.102.023 5.683-2.365 5.967-5.455 1.451-15.816 18.646-25.776 33.055-19.768 3.298 1.375 7.102-.495 8.01-3.951 4.764-18.127 24.956-22.348 37.44-12.851 2.477 1.884 5.945 1.7 8.086-.559 9.302-9.813 25.328-9.831 34.65-.039 2.108 2.215 5.576 2.543 7.974.646 13.274-10.505 33.716-3.581 37.938 12.693.895 3.45 4.695 5.241 8.007 3.923 14.329-5.702 31.288 4.175 32.714 19.907.28 3.091 2.864 5.478 5.967 5.457 14.548-.099 26.504 13.496 23.753 28.251-.521 2.795 1.017 5.547 3.646 6.631 13.18 5.436 18.592 21.595 11.664 33.871z" fill="#aaa"/><path d="m193.155 198.061c-8.837 0-16-7.163-16-16v-5.141c0-8.837 7.163-16 16-16s16 7.163 16 16v5.141c0 8.836-7.163 16-16 16z" fill="#808080"/><path d="m270.835 198.061c-8.837 0-16-7.163-16-16v-5.141c0-8.837 7.163-16 16-16s16 7.163 16 16v5.141c0 8.836-7.163 16-16 16z" fill="#808080"/><path d="m295.325 21.04c-8.23-5.37-19.6-5.75-28.05.94-2.4 1.9-5.87 1.57-7.97-.65-9.33-9.79-25.35-9.77-34.65.04-2.14 2.26-5.61 2.45-8.09.56-12.48-9.49-32.68-5.27-37.44 12.85-.91 3.46-4.71 5.33-8.01 3.96-14.41-6.01-31.6 3.95-33.06 19.76-.28 3.09-2.86 5.48-5.96 5.46-14.57-.11-26.5 13.521-23.76 28.25.52 2.8-1.02 5.55-3.64 6.63-13.18 5.44-18.6 21.6-11.67 33.87 1.59 2.82.72 6.34-2 8.09-8.914 5.737-12.818 16.41-10.27 26.2-14.522-9.672-14.246-30.858.27-40.2 2.72-1.75 3.59-5.27 2-8.09-6.93-12.27-1.51-28.43 11.67-33.87 2.62-1.08 4.16-3.83 3.64-6.63-2.74-14.729 9.19-28.36 23.76-28.25 3.1.021 5.68-2.37 5.96-5.46 1.46-15.81 18.65-25.77 33.06-19.76 3.3 1.37 7.1-.5 8.01-3.96 4.76-18.12 24.96-22.34 37.44-12.85 2.48 1.89 5.95 1.7 8.09-.56 9.3-9.81 25.32-9.83 34.65-.04 2.1 2.22 5.57 2.55 7.97.65 13.27-10.5 33.72-3.58 37.94 12.69.03.13.07.25.11.37z" fill="#b2b2b2"/><path d="m304.065 299.59c-24.322 16.116-47.702 20.86-74.76 20.86-69.43 0-125.71-56.28-125.71-125.71v-8.17c3.21-14.66 8.82-28.32 16.37-40.6-.51 2.079-.37-1.878-.37 39.77 0 69.43 56.28 125.71 125.71 125.71 19.293 0 37.16-1.713 58.76-11.86z" fill="#e0b7a3"/><path d="m308.765 358.7c-8.745 0-144.807 0-153.54 0-51.78 0-94.832 37.404-103.62 86.675-1.735 9.727 5.905 18.615 15.785 18.615h329.21c9.881 0 17.52-8.888 15.785-18.615-8.788-49.271-51.84-86.675-103.62-86.675z" fill="#e8f8fc"/><path d="m302.995 358.7c0 40.278-32.335 71.38-71 71.38-38.597 0-71-31.029-71-71.38z" fill="#d6a68e"/><path d="m163.925 379.3c-46.17 4.93-83.41 39.71-92.05 84.69h-4.48c-9.89 0-17.52-8.89-15.79-18.61 8.79-49.28 51.84-86.68 103.62-86.68h5.77c0 6.956.864 13.665 2.93 20.6z" fill="#f1fafc"/><path d="m300.065 379.3c46.17 4.93 83.41 39.71 92.05 84.69h4.48c9.89 0 17.52-8.89 15.79-18.61-8.79-49.28-51.84-86.68-103.62-86.68h-5.77c0 6.956-.863 13.665-2.93 20.6z" fill="#cefcaa"/><path d="m300.065 379.3c46.17 4.93 83.41 39.71 92.05 84.69h4.48c9.89 0 17.52-8.89 15.79-18.61-8.79-49.28-51.84-86.68-103.62-86.68h-5.77c0 6.956-.863 13.665-2.93 20.6z" fill="#d6f4fc"/><path d="m277.485 413.58c-45.473 38.049-116.49 6.469-116.49-54.88h10.31c4.764 51.506 61.579 80.684 106.18 54.88z" fill="#c79a83"/></svg>