<svg width="154" height="151" viewBox="0 0 154 151" fill="none" xmlns="http://www.w3.org/2000/svg">
<g clip-path="url(#clip0)">
<path d="M146.979 94.2783L151.385 89.9593C154.157 87.2393 154.157 82.8143 151.385 80.0943C150.04 78.7776 148.255 78.0518 146.354 78.0518C144.927 78.0518 143.564 78.4607 142.406 79.2222L141.478 76.167L146.247 71.4897C149.021 68.7698 149.021 64.3448 146.247 61.626C143.694 59.1214 139.668 58.929 136.88 61.0361L131.229 42.433C133.486 40.3017 135.648 38.228 137.685 36.2304C143.556 30.4725 148.33 24.3794 151.127 19.0708C155.854 10.0987 153.875 5.30273 151.383 2.85925C148.893 0.415774 144.001 -1.52311 134.85 3.11155C129.437 5.8534 123.222 10.5341 117.35 16.292C115.313 18.2897 113.197 20.4083 111.025 22.6213L92.0507 17.08C94.1996 14.3474 94.0034 10.4005 91.4503 7.89597C88.6763 5.17716 84.1634 5.176 81.3906 7.89597L76.6204 12.5733L73.5033 11.6631C74.2799 10.5261 74.697 9.18971 74.697 7.79114C74.697 5.92829 73.9568 4.17603 72.6139 2.85925C69.841 0.139284 65.327 0.139284 62.5541 2.85925L58.1493 7.17825L35.6976 0.620838C34.8975 0.388125 34.0327 0.602405 33.4441 1.18073L27.6646 6.84761C26.6941 7.79805 26.8222 9.42358 27.929 10.2173L84.577 50.874C71.8043 64.9945 59.5005 79.1324 50.8142 89.2335L34.1514 82.9491C33.3137 82.6334 32.3655 82.8304 31.7311 83.4525L24.8812 90.1689C23.9953 91.0387 23.9953 92.4477 24.8812 93.3163L59.1292 126.897C60.0034 127.755 61.465 127.755 62.3403 126.897L69.1889 120.182C69.8234 119.56 70.0255 118.629 69.7024 117.808L63.2943 101.47C73.5961 92.9534 88.0136 80.8892 102.416 68.3643L106.916 74.394C107.715 75.4643 109.335 75.6025 110.315 74.6901C111.132 73.9298 111.244 72.6545 110.58 71.7651L105.823 65.392C113.355 58.8012 120.792 52.1516 127.539 45.8856L148.929 116.293L145.979 119.184L116.581 79.8029C115.841 78.811 114.42 78.5955 113.409 79.3213C112.396 80.0483 112.176 81.4411 112.917 82.433L143.88 123.91C144.69 124.995 146.348 125.121 147.317 124.169L153.096 118.502C153.686 117.925 153.905 117.076 153.667 116.293L146.979 94.2783ZM84.6017 11.0445C85.5933 10.0722 87.2488 10.0722 88.2404 11.0445C89.2438 12.0283 89.2438 13.6285 88.2404 14.6124L87.1759 15.6561L81.568 14.0179L84.6017 11.0445ZM65.7652 6.00778C66.7674 5.02394 68.4006 5.02394 69.404 6.00778C70.4073 6.99162 70.4073 8.5918 69.404 9.57565L68.7037 10.2611L63.0969 8.62406L65.7652 6.00778ZM32.7474 8.15864L35.6976 5.26702L107.503 26.2388C101.113 32.8561 94.3312 40.1485 87.6083 47.5331L32.7474 8.15864ZM33.8988 87.6241L47.7218 92.8371C44.2546 96.8853 41.5958 100.018 40.0272 101.871L29.6973 91.7426L33.8988 87.6241ZM43.2524 105.034C51.1667 95.6711 93 46.464 120.562 19.4394C126.03 14.0767 131.998 9.56758 136.934 7.06765C140.64 5.18983 145.598 3.48251 148.174 6.00778C150.749 8.53305 149.007 13.3947 147.093 17.0282C144.543 21.8679 139.943 27.7191 134.474 33.0819C106.915 60.1041 56.7288 101.124 47.1802 108.885L43.2524 105.034ZM64.9357 118.056L60.7353 122.175L50.4054 112.046C52.2946 110.509 55.4905 107.902 59.6192 104.503L64.9357 118.056ZM144.535 83.2429C145.538 82.259 147.17 82.259 148.174 83.2429C149.177 84.2267 149.177 85.8269 148.174 86.8107L145.505 89.427L143.834 83.9295L144.535 83.2429ZM139.398 64.7733C140.4 63.7895 142.033 63.7907 143.037 64.7733C144.028 65.7457 144.028 67.3689 143.037 68.3412L140.003 71.3158L138.332 65.8171L139.398 64.7733Z" fill="#FFFBEE"/>
<path d="M136.279 128.498L116.905 147.494C116.079 148.305 116.024 149.644 116.784 150.515C117.634 151.487 119.193 151.548 120.116 150.643L139.49 131.647C140.377 130.777 140.377 129.368 139.49 128.498C138.604 127.63 137.166 127.63 136.279 128.498V128.498Z" fill="#FFFBEE"/>
<path d="M129.803 122.148C130.69 121.28 130.69 119.87 129.803 119.001C128.917 118.131 127.479 118.131 126.593 119.001L114.484 130.873C113.658 131.684 113.603 133.023 114.363 133.893C115.213 134.866 116.772 134.927 117.695 134.021L129.803 122.148Z" fill="#FFFBEE"/>
<path d="M122.538 110.277C123.425 109.407 123.425 107.997 122.538 107.128C121.651 106.258 120.214 106.258 119.327 107.128L110.851 115.439C110.025 116.249 109.97 117.589 110.731 118.46C111.58 119.432 113.139 119.493 114.062 118.587L122.538 110.277Z" fill="#FFFBEE"/>
<path d="M23.2498 15.7091C22.3627 14.8405 20.9246 14.8405 20.0387 15.7091L0.665303 34.7062C-0.221768 35.5749 -0.221768 36.985 0.665303 37.8536C1.53945 38.7107 3.00106 38.7107 3.87638 37.8536L23.2498 18.8576C24.1357 17.9878 24.1357 16.5789 23.2498 15.7091Z" fill="#FFFBEE"/>
<path d="M32.9353 25.2077C32.0482 24.3379 30.6113 24.3379 29.7254 25.2077L17.6166 37.0806C16.7894 37.8905 16.7354 39.2292 17.4955 40.1001C18.345 41.0724 19.903 41.1335 20.8265 40.228L32.9353 28.3562C33.8223 27.4864 33.8223 26.0763 32.9353 25.2077Z" fill="#FFFBEE"/>
<path d="M33.3568 43.7901C34.2321 44.6472 35.6926 44.6472 36.5679 43.7901L45.0438 35.4793C45.9297 34.6095 45.9297 33.2005 45.0438 32.3307C44.1567 31.4621 42.7198 31.4621 41.8327 32.3307L33.3568 40.6416C32.4709 41.5113 32.4709 42.9203 33.3568 43.7901Z" fill="#FFFBEE"/>
</g>
<defs>
<clipPath id="clip0">
<rect width="154" height="151" fill="white"/>
</clipPath>
</defs>
</svg>
