<svg width="45" height="41" viewBox="0 0 45 41" fill="none" xmlns="http://www.w3.org/2000/svg">
<path d="M45 10.8105C45 8.82357 43.2258 7.20703 41.0449 7.20703H39.7266V3.68359C39.7266 1.65249 37.9129 0 35.6836 0H9.31641C7.08715 0 5.27344 1.65249 5.27344 3.68359V7.20703H3.95508C1.77425 7.20703 0 8.82357 0 10.8105V16.8388H5.27344V35.3721H7.03125V37.3965C7.03125 39.3835 8.8055 41 10.9863 41H12.7688C14.9496 41 16.7238 39.3835 16.7238 37.3965V35.3721H28.2763V37.3965C28.2763 39.3835 30.0505 41 32.2313 41H34.0137C36.1945 41 37.9688 39.3835 37.9688 37.3965V35.3721H39.7266V16.8388H45V10.8105ZM9.31641 2.40234H35.6836C36.459 2.40234 37.0898 2.97714 37.0898 3.68359V4.80469H7.91016V3.68359C7.91016 2.97714 8.54104 2.40234 9.31641 2.40234ZM2.63672 14.4365V10.8105C2.63672 10.1482 3.22813 9.60938 3.95508 9.60938H5.27344V14.4365H2.63672ZM37.0898 30.5674V32.9698H28.7033V28.1651H16.2966V32.9698H7.91016V30.5674H13.2204V28.1651H7.91016V23.5603C12.7549 24.2115 17.6273 24.5384 22.5 24.5384C27.3727 24.5384 32.245 24.2115 37.0898 23.5603V28.1651H31.7795V30.5674H37.0898ZM26.0666 32.9698H18.9333V30.5674H26.0666V32.9698ZM14.0871 37.3965C14.0871 38.0588 13.4957 38.5977 12.7688 38.5977H10.9863C10.2594 38.5977 9.66797 38.0588 9.66797 37.3965V35.3721H14.0871V37.3965ZM35.332 37.3965C35.332 38.0588 34.7406 38.5977 34.0137 38.5977H32.2313C31.5044 38.5977 30.913 38.0588 30.913 37.3965V35.3721H35.332V37.3965ZM37.0898 21.1319C27.4025 22.4701 17.5975 22.4701 7.91016 21.1319V16.8388V7.20703H37.0898V16.8388V21.1319ZM42.3633 14.4365H39.7266V9.60938H41.0449C41.7719 9.60938 42.3633 10.1482 42.3633 10.8105V14.4365Z" fill="#040100" fill-opacity="0.8"/>
</svg>
