<svg width="120" height="120" viewBox="0 0 120 120" fill="none" xmlns="http://www.w3.org/2000/svg">
<path d="M116.355 24.6891H114.139C114.075 21.1826 111.205 18.3491 107.684 18.3491H102.32V9.97386C102.32 6.41339 99.4224 3.51575 95.8619 3.51575H24.1378C20.5764 3.51575 17.6797 6.41339 17.6797 9.97386V18.3491H12.3156C8.79454 18.3491 5.92437 21.1826 5.86119 24.6891H3.64471C1.63513 24.6891 0 26.3242 0 28.3338V47.1094C0 49.119 1.63513 50.7541 3.64471 50.7541H11.5942C13.6038 50.7541 15.2389 49.119 15.2389 47.1094V28.3338C15.2389 26.3242 13.6038 24.6891 11.5942 24.6891H9.38688C9.44914 23.1254 10.7373 21.8711 12.3156 21.8711H17.6797V87.2131C17.6797 88.1863 18.468 88.9746 19.4412 88.9746C20.4135 88.9746 21.2027 88.1863 21.2027 87.2131V72.6883C22.0834 73.1405 23.0813 73.3969 24.1378 73.3969H95.8619C96.9184 73.3969 97.9164 73.1405 98.7971 72.6883V101.124C98.7971 102.742 97.4806 104.059 95.8619 104.059H24.1378C22.5192 104.059 21.2027 102.742 21.2027 101.124V95.3539C21.2027 94.3817 20.4135 93.5925 19.4412 93.5925C18.468 93.5925 17.6797 94.3817 17.6797 95.3539V101.124C17.6797 104.684 20.5764 107.581 24.1378 107.581H25.9698V111.675C25.9698 114.394 28.1817 116.607 30.9017 116.607H38.8192C41.5383 116.607 43.7502 114.394 43.7502 111.675V107.581H76.2495V111.675C76.2495 114.394 78.4615 116.607 81.1806 116.607H89.098C91.8181 116.607 94.03 114.394 94.03 111.675V107.581H95.8619C99.4233 107.581 102.32 104.684 102.32 101.124V21.8711H107.684C109.262 21.8711 110.551 23.1254 110.614 24.6891H108.406C106.397 24.6891 104.761 26.3242 104.761 28.3338V47.1094C104.761 49.119 106.397 50.7541 108.406 50.7541H116.355C118.365 50.7541 120 49.119 120 47.1094V28.3338C120 26.3242 118.365 24.6891 116.355 24.6891V24.6891ZM11.5942 28.2111C11.662 28.2111 11.716 28.2661 11.716 28.3338V47.1094C11.716 47.1772 11.661 47.2321 11.5942 47.2321H3.64471C3.57696 47.2321 3.52203 47.1772 3.52203 47.1094V28.3338C3.52203 28.2661 3.57696 28.2111 3.64471 28.2111H11.5942ZM40.2282 111.675C40.2282 112.451 39.5956 113.084 38.8192 113.084H30.9017C30.1245 113.084 29.4927 112.451 29.4927 111.675V107.581H40.2273V111.675H40.2282ZM90.507 111.675C90.507 112.451 89.8753 113.084 89.098 113.084H81.1806C80.4042 113.084 79.7716 112.451 79.7716 111.675V107.581H90.507V111.675ZM98.7971 24.5518H27.6708C26.6986 24.5518 25.9103 25.34 25.9103 26.3132C25.9103 27.2855 26.6986 28.0747 27.6708 28.0747H98.798V61.4383H87.1626C86.1894 61.4383 85.4011 62.2266 85.4011 63.1998C85.4011 64.173 86.1894 64.9612 87.1626 64.9612H98.798V66.9397C98.798 68.5574 97.4815 69.8749 95.8628 69.8749H24.1378C22.5192 69.8749 21.2027 68.5574 21.2027 66.9397V64.9612H78.943C79.9162 64.9612 80.7045 64.173 80.7045 63.1998C80.7045 62.2266 79.9162 61.4383 78.943 61.4383H61.6204L78.2372 47.5479C78.9815 46.9254 79.0803 45.8167 78.4578 45.0715C77.8352 44.3271 76.7265 44.2273 75.9822 44.8508L56.1391 61.4383H48.576L65.1918 47.5479C65.9371 46.9254 66.0359 45.8167 65.4134 45.0724C64.7908 44.3271 63.6821 44.2273 62.9369 44.8508L43.0947 61.4392H21.2027V18.9158H98.7971V24.5518ZM98.7971 15.3929H21.2027V9.97386C21.2027 8.35522 22.5192 7.03869 24.1378 7.03869H95.8619C97.4806 7.03869 98.7971 8.35522 98.7971 9.97386V15.3929ZM116.478 47.1094C116.478 47.1772 116.423 47.2321 116.355 47.2321H108.406C108.339 47.2321 108.284 47.1772 108.284 47.1094V28.3338C108.284 28.2661 108.339 28.2111 108.406 28.2111H116.355C116.423 28.2111 116.478 28.2661 116.478 28.3338V47.1094Z" fill="#FFFBEE"/>
<path d="M43.5026 91.949C45.1212 91.949 46.4377 90.6316 46.4377 89.0129V86.1949C46.4377 82.3754 43.3304 79.2681 39.5099 79.2681H28.7076C27.089 79.2681 25.7725 80.5846 25.7725 82.2032V85.0212C25.7725 88.8408 28.8798 91.949 32.7003 91.949H43.5026ZM29.2945 85.0212V82.7901H39.5099C41.3877 82.7901 42.9148 84.3181 42.9148 86.1949V88.4261H32.7003C30.8225 88.4261 29.2945 86.8981 29.2945 85.0212Z" fill="#FFFBEE"/>
<path d="M87.299 91.949C91.1195 91.949 94.2268 88.8408 94.2268 85.0212V82.2032C94.2268 80.5846 92.9103 79.2681 91.2916 79.2681H80.4893C76.6697 79.2681 73.5615 82.3754 73.5615 86.1949V89.0129C73.5615 90.6316 74.8781 91.949 76.4967 91.949H87.299ZM77.0836 86.1949C77.0836 84.3172 78.6116 82.7901 80.4893 82.7901H90.7039V85.0212C90.7039 86.899 89.1768 88.4261 87.299 88.4261H77.0836V86.1949Z" fill="#FFFBEE"/>
<path d="M67.7739 101.42C69.0181 101.42 70.0298 100.409 70.0298 99.1644V94.5181C70.0298 93.2739 69.0181 92.2622 67.7739 92.2622H52.2246C50.9804 92.2622 49.9688 93.2739 49.9688 94.5181V99.1644C49.9688 100.409 50.9804 101.42 52.2246 101.42H67.7739ZM53.4908 95.7842H66.5078V97.8982H53.4908V95.7842Z" fill="#FFFBEE"/>
</svg>
