<svg id="Layer_1" enable-background="new 0 0 464 464" height="512" viewBox="0 0 464 464" width="512" xmlns="http://www.w3.org/2000/svg"><path d="m296.138 3.68c-11.635 2.759-24.637 8.626-35.71 16.85 17.4 11.41 31.79 27.02 41.74 45.4 44.932-8.352 78.01 29.418 77.198 78.222-.104 6.241 8.265 8.43 11.258 2.953 56.703-103.77-30.863-159.252-94.486-143.425z" fill="#aaa"/><path d="m191.558 0h-5.38c-69.43 0-125.71 56.28-125.71 125.71v53.04c0 69.43 56.28 125.71 125.71 125.71h5.38c67.23 0 122.12-52.76 125.54-119.14.232-4.594.17-1.482.17-59.61 0-69.373-56.236-125.71-125.71-125.71z" fill="#ffdfba"/><path d="m150.028 192.07c-8.836 0-16-7.163-16-16v-5.141c0-8.837 7.164-16 16-16s16 7.163 16 16v5.141c0 8.837-7.164 16-16 16z" fill="#aaa"/><path d="m227.707 192.07c-8.836 0-16-7.163-16-16v-5.141c0-8.837 7.164-16 16-16s16 7.163 16 16v5.141c0 8.837-7.163 16-16 16z" fill="#aaa"/><path d="m322.496 445.835c-7.009-52.03-44.03-84.261-86.489-91.186-10.923-1.797-11.558-1.38-77.29-1.38-48.988 0-95.507 33.645-103.475 92.581-1.297 9.602 6.174 18.15 15.863 18.15h235.531c9.695 0 17.155-8.556 15.86-18.165z" fill="#ffa4b8"/><path d="m236.008 354.65-.14.85c0 25.78-21.22 47-47 47s-47-21.22-47-47l-.14-.85c10.911-1.796 11.479-1.38 77.29-1.38 5.79 0 11.46.47 16.99 1.38z" fill="#ffdfba"/><path d="m275.518 32.15c-20.609-9.819-38.306-12.15-59.34-12.15-69.43 0-125.71 56.28-125.71 125.71v53.04c0 37.17 16.13 70.57 41.78 93.58-42.44-20.18-71.78-63.45-71.78-113.58v-53.04c0-69.43 56.28-125.71 125.71-125.71 32.87 0 62.164 7.739 89.34 32.15z" fill="#ffebd2"/><path d="m317.268 125.71c0 58.089.062 55.013-.17 59.61-35.707-61.535-106.227-93.18-177.189-77.605-3.332.731-6.33 2.522-8.57 5.094-8.405 9.653-33.021 36.007-70.871 60.541v-47.64c0-69.428 56.282-125.71 125.71-125.71 26.52 0 49.789 4.487 74.25 20.53 34.382 22.546 56.84 61.373 56.84 105.18z" fill="#aaa"/><path d="m275.518 32.15c-20.609-9.819-38.306-12.15-59.34-12.15-69.43 0-125.71 56.28-125.71 125.71v5.89c-8.79 7.09-18.82 14.5-30 21.75v-47.64c0-69.43 56.28-125.71 125.71-125.71 32.87 0 62.164 7.739 89.34 32.15z" fill="#b2b2b2"/><path d="m396.278 40.54c-31.596-28.768-80.707-33.769-119.59-7.33-5.05-4.65-10.49-8.89-16.26-12.68 46.708-34.687 108.799-20.233 135.85 20.01z" fill="#b2b2b2"/><path d="m325.118 65.8c-10.2-1.83-18.7-.66-22.95.13-9.95-18.38-24.34-33.99-41.74-45.4 11.034-8.194 23.988-14.059 35.71-16.85 14.74-3.43 29.84 1.99 37.73 13.32 10.05 14.41 6.93 36.24-8.75 48.8z" fill="#ffa4b8"/><path d="m333.078 15.92c-20.385-.303-40.088 6.205-56.39 17.29-5.05-4.65-10.49-8.89-16.26-12.68 11.027-8.189 24.029-14.08 35.71-16.85 14.26-3.32 28.86 1.65 36.94 12.24z" fill="#ffb1bf"/><path d="m144.988 372.25c-37.8 10.62-68.42 41.88-74.74 88.6-.14 1.05-.18 2.1-.12 3.12-9.21-.56-16.14-8.85-14.88-18.12 6.96-51.48 43.43-84.18 86.48-91.2.328 1.995-.223 8.572 3.26 17.6z" fill="#ffb1bf"/><path d="m232.748 372.25c37.8 10.62 68.42 41.88 74.74 88.6.14 1.05.18 2.1.12 3.12 9.21-.56 16.14-8.85 14.88-18.12-6.96-51.48-43.43-84.18-86.48-91.2-.329 1.995.223 8.572-3.26 17.6z" fill="#ff99af"/><path d="m211.008 396.89c-31.238 16.917-69.14-6.303-69.14-41.39l-.14-.85c3.35-.55 6.74-.94 10.19-1.16 1.244 29.483 29.877 51.304 59.09 43.4z" fill="#faccaf"/></svg>