<svg width="50" height="49" viewBox="0 0 50 49" fill="none" xmlns="http://www.w3.org/2000/svg">
<path d="M21.0938 30.625H22.6562V32.1562H21.0938V30.625Z" fill="#040100" fill-opacity="0.8"/>
<path d="M24.2188 30.625H25.7812V32.1562H24.2188V30.625Z" fill="#040100" fill-opacity="0.8"/>
<path d="M27.3438 30.625H28.9062V32.1562H27.3438V30.625Z" fill="#040100" fill-opacity="0.8"/>
<path d="M21.0938 33.6875H22.6562V35.2188H21.0938V33.6875Z" fill="#040100" fill-opacity="0.8"/>
<path d="M24.2188 33.6875H25.7812V35.2188H24.2188V33.6875Z" fill="#040100" fill-opacity="0.8"/>
<path d="M27.3438 33.6875H28.9062V35.2188H27.3438V33.6875Z" fill="#040100" fill-opacity="0.8"/>
<path d="M21.0938 36.75H22.6562V38.2812H21.0938V36.75Z" fill="#040100" fill-opacity="0.8"/>
<path d="M24.2188 36.75H25.7812V38.2812H24.2188V36.75Z" fill="#040100" fill-opacity="0.8"/>
<path d="M27.3438 36.75H28.9062V38.2812H27.3438V36.75Z" fill="#040100" fill-opacity="0.8"/>
<path d="M21.0938 24.5H22.6562V26.0312H21.0938V24.5Z" fill="#040100" fill-opacity="0.8"/>
<path d="M24.2188 24.5H25.7812V26.0312H24.2188V24.5Z" fill="#040100" fill-opacity="0.8"/>
<path d="M27.3438 24.5H28.9062V26.0312H27.3438V24.5Z" fill="#040100" fill-opacity="0.8"/>
<path d="M21.0938 27.5625H22.6562V29.0938H21.0938V27.5625Z" fill="#040100" fill-opacity="0.8"/>
<path d="M24.2188 27.5625H25.7812V29.0938H24.2188V27.5625Z" fill="#040100" fill-opacity="0.8"/>
<path d="M27.3438 27.5625H28.9062V29.0938H27.3438V27.5625Z" fill="#040100" fill-opacity="0.8"/>
<path d="M17.37 7.88977L20.6185 10.9928L19.8516 15.3744C19.8269 15.5152 19.843 15.66 19.8979 15.7924C19.9528 15.9247 20.0444 16.0394 20.1624 16.1233C20.2803 16.2073 20.4199 16.2573 20.5653 16.2676C20.7107 16.2779 20.8561 16.2481 20.9852 16.1816L25 14.1129L29.0153 16.1816C29.1443 16.2481 29.2898 16.2779 29.4352 16.2676C29.5806 16.2573 29.7201 16.2073 29.8381 16.1233C29.956 16.0394 30.0476 15.9247 30.1026 15.7924C30.1575 15.66 30.1735 15.5152 30.1489 15.3744L29.382 10.9928L32.6308 7.88977C32.7352 7.79005 32.809 7.6637 32.844 7.52499C32.8789 7.38628 32.8736 7.24076 32.8285 7.10489C32.7835 6.96901 32.7005 6.84819 32.5891 6.75611C32.4776 6.66402 32.3421 6.60434 32.1978 6.58381L27.7086 5.94461L25.701 1.958C25.6365 1.82988 25.5367 1.72201 25.4129 1.64659C25.2891 1.57116 25.1462 1.53119 25.0004 1.53119C24.8546 1.53119 24.7118 1.57116 24.588 1.64659C24.4642 1.72201 24.3643 1.82988 24.2998 1.958L22.2922 5.94461L17.8028 6.58381C17.6585 6.60434 17.523 6.66402 17.4115 6.75611C17.3 6.84819 17.2171 6.96901 17.172 7.10489C17.127 7.24076 17.1216 7.38628 17.1566 7.52499C17.1915 7.6637 17.2654 7.79005 17.3698 7.88977H17.37ZM22.9234 7.40169C23.0487 7.38382 23.1678 7.33636 23.2702 7.26338C23.3727 7.19041 23.4555 7.09411 23.5116 6.98279L25 4.02691L26.4889 6.98318C26.5449 7.0945 26.6278 7.19079 26.7302 7.26377C26.8327 7.33674 26.9517 7.3842 27.0771 7.40207L30.4062 7.87609L27.9981 10.1774C27.9074 10.264 27.8396 10.371 27.8004 10.489C27.7613 10.6071 27.752 10.7327 27.7735 10.855L28.3421 14.1043L25.3645 12.5702C25.2524 12.5125 25.1276 12.4823 25.0009 12.4823C24.8742 12.4823 24.7495 12.5125 24.6373 12.5702L21.6597 14.1043L22.2283 10.855C22.2498 10.7327 22.2405 10.6071 22.2014 10.489C22.1623 10.371 22.0944 10.264 22.0037 10.1774L19.5943 7.87637L22.9234 7.40169Z" fill="#040100" fill-opacity="0.8"/>
<path d="M32.0695 13.9815C32.0244 14.1173 32.0191 14.2628 32.054 14.4015C32.0889 14.5402 32.1628 14.6665 32.2671 14.7662L34.4303 16.8327L33.9197 19.7505C33.895 19.8914 33.911 20.0361 33.966 20.1685C34.0209 20.3008 34.1125 20.4155 34.2304 20.4994C34.3484 20.5834 34.488 20.6334 34.6334 20.6437C34.7788 20.654 34.9242 20.6242 35.0533 20.5577L37.7272 19.1801L40.4011 20.5577C40.5302 20.6242 40.6756 20.6539 40.821 20.6436C40.9664 20.6333 41.1059 20.5834 41.2239 20.4994C41.3418 20.4154 41.4334 20.3008 41.4883 20.1684C41.5432 20.0361 41.5593 19.8913 41.5346 19.7505L41.0239 16.8327L43.1872 14.7662C43.2916 14.6665 43.3654 14.5402 43.4003 14.4014C43.4353 14.2627 43.4299 14.1172 43.3849 13.9813C43.3398 13.8455 43.2569 13.7247 43.1454 13.6326C43.034 13.5405 42.8984 13.4808 42.7541 13.4603L39.7647 13.0348L38.4277 10.3799C38.3632 10.2518 38.2634 10.1439 38.1396 10.0685C38.0158 9.99312 37.8729 9.95316 37.7271 9.95316C37.5814 9.95316 37.4385 9.99312 37.3147 10.0685C37.1909 10.1439 37.0911 10.2518 37.0266 10.3799L35.6896 13.0348L32.7001 13.4605C32.5559 13.481 32.4204 13.5407 32.3089 13.6327C32.1975 13.7248 32.1145 13.8456 32.0695 13.9815ZM36.3207 14.4921C36.4461 14.4743 36.5651 14.4269 36.6676 14.3539C36.7701 14.2809 36.853 14.1847 36.909 14.0733L37.7272 12.4487L38.5454 14.0733C38.6014 14.1846 38.6842 14.2809 38.7867 14.3539C38.8892 14.4268 39.0082 14.4743 39.1335 14.4921L40.9629 14.7526L39.6392 16.0173C39.5485 16.1039 39.4807 16.2109 39.4416 16.3289C39.4024 16.447 39.3932 16.5726 39.4146 16.6949L39.7271 18.4806L38.0908 17.6374C37.9787 17.5797 37.8539 17.5495 37.7272 17.5495C37.6006 17.5495 37.4758 17.5797 37.3637 17.6374L35.7274 18.4806L36.0399 16.6949C36.0613 16.5726 36.0521 16.447 36.0129 16.3289C35.9738 16.2109 35.906 16.1039 35.8153 16.0173L34.4914 14.7526L36.3207 14.4921Z" fill="#040100" fill-opacity="0.8"/>
<path d="M40.8026 22.314C40.6583 22.3346 40.5228 22.3943 40.4114 22.4864C40.3 22.5785 40.2171 22.6993 40.172 22.8351C40.127 22.971 40.1216 23.1165 40.1566 23.2552C40.1915 23.3939 40.2653 23.5202 40.3697 23.6199L41.7608 24.9489L41.4324 26.8256C41.4077 26.9664 41.4238 27.1111 41.4787 27.2435C41.5336 27.3758 41.6252 27.4904 41.7431 27.5744C41.8611 27.6584 42.0006 27.7084 42.146 27.7187C42.2914 27.729 42.4368 27.6992 42.5659 27.6328L44.2854 26.7468L46.0049 27.6328C46.134 27.6992 46.2794 27.7289 46.4248 27.7186C46.5701 27.7083 46.7097 27.6583 46.8276 27.5744C46.9455 27.4904 47.0371 27.3758 47.092 27.2434C47.1469 27.1111 47.163 26.9664 47.1383 26.8256L46.8099 24.9492L48.2012 23.6195C48.3056 23.5198 48.3794 23.3935 48.4143 23.2548C48.4493 23.1161 48.4439 22.9706 48.3989 22.8347C48.3538 22.6989 48.2709 22.5781 48.1594 22.486C48.048 22.3939 47.9125 22.3342 47.7682 22.3137L45.8458 22.0404L44.9864 20.3332C44.9219 20.2051 44.8221 20.0972 44.6983 20.0218C44.5744 19.9463 44.4316 19.9064 44.2858 19.9064C44.14 19.9064 43.9971 19.9463 43.8733 20.0218C43.7495 20.0972 43.6497 20.2051 43.5852 20.3332L42.7258 22.0404L40.8026 22.314ZM43.945 23.0789L44.2859 22.4019L44.6269 23.0789C44.6829 23.1901 44.7656 23.2864 44.868 23.3593C44.9704 23.4323 45.0893 23.4798 45.2145 23.4977L45.9769 23.6063L45.4252 24.1333C45.3345 24.2199 45.2667 24.3269 45.2276 24.445C45.1884 24.5631 45.1792 24.6887 45.2006 24.811L45.3309 25.5551L44.649 25.2038C44.5369 25.146 44.4121 25.1159 44.2855 25.1159C44.1588 25.1159 44.034 25.146 43.9219 25.2038L43.24 25.5551L43.3702 24.811C43.3916 24.6887 43.3824 24.5631 43.3432 24.445C43.3041 24.3269 43.2363 24.2199 43.1456 24.1333L42.594 23.6063L43.3564 23.4977C43.4818 23.4799 43.6009 23.4325 43.7035 23.3595C43.806 23.2866 43.8889 23.1903 43.945 23.0789Z" fill="#040100" fill-opacity="0.8"/>
<path d="M6.81282 14.7663L8.9761 16.8327L8.46536 19.7506C8.44071 19.8914 8.45675 20.0362 8.51167 20.1685C8.56659 20.3009 8.65819 20.4155 8.77612 20.4995C8.89404 20.5834 9.0336 20.6334 9.17899 20.6437C9.32438 20.654 9.46982 20.6243 9.59886 20.5578L12.2728 19.1801L14.9467 20.5578C15.0757 20.6243 15.2212 20.6541 15.3666 20.6438C15.512 20.6335 15.6516 20.5835 15.7695 20.4995C15.8875 20.4156 15.9791 20.3009 16.034 20.1686C16.0889 20.0362 16.105 19.8914 16.0803 19.7506L15.5697 16.8327L17.7328 14.7663C17.8372 14.6666 17.9111 14.5402 17.946 14.4015C17.981 14.2628 17.9756 14.1173 17.9306 13.9814C17.8855 13.8456 17.8026 13.7247 17.6911 13.6327C17.5796 13.5406 17.4441 13.4809 17.2998 13.4604L14.3104 13.0348L12.9734 10.38C12.9088 10.2519 12.809 10.144 12.6852 10.0686C12.5614 9.99321 12.4186 9.95325 12.2728 9.95325C12.1271 9.95325 11.9842 9.99321 11.8604 10.0686C11.7366 10.144 11.6368 10.2519 11.5723 10.38L10.2353 13.0348L7.24612 13.4604C7.10185 13.4809 6.96632 13.5406 6.85485 13.6327C6.74339 13.7247 6.66044 13.8456 6.61539 13.9814C6.57034 14.1173 6.56498 14.2628 6.59992 14.4015C6.63486 14.5402 6.70871 14.6666 6.81311 14.7663H6.81282ZM10.8664 14.4921C10.9918 14.4743 11.1108 14.4268 11.2133 14.3539C11.3157 14.2809 11.3986 14.1846 11.4546 14.0733L12.2728 12.4487L13.0909 14.0733C13.147 14.1846 13.2299 14.2809 13.3323 14.3539C13.4348 14.4268 13.5539 14.4743 13.6792 14.4921L15.5086 14.7526L14.1849 16.0173C14.0942 16.1039 14.0264 16.2109 13.9872 16.3289C13.9481 16.447 13.9389 16.5726 13.9603 16.6949L14.2728 18.4806L12.6365 17.6374C12.5243 17.5797 12.3996 17.5496 12.2729 17.5496C12.1463 17.5496 12.0215 17.5797 11.9094 17.6374L10.2735 18.4803L10.586 16.6946C10.6074 16.5723 10.5981 16.4467 10.559 16.3286C10.5199 16.2106 10.452 16.1036 10.3614 16.017L9.03704 14.7526L10.8664 14.4921Z" fill="#040100" fill-opacity="0.8"/>
<path d="M1.79901 23.6195L3.19012 24.9488L2.8619 26.8256C2.83723 26.9664 2.85327 27.1112 2.90819 27.2435C2.96311 27.3759 3.05473 27.4905 3.17267 27.5745C3.29061 27.6585 3.43018 27.7084 3.57559 27.7187C3.721 27.729 3.86645 27.6992 3.99549 27.6327L5.71502 26.7468L7.43455 27.6327C7.56358 27.6992 7.70899 27.7289 7.85435 27.7185C7.99972 27.7082 8.13923 27.6582 8.25713 27.5743C8.37502 27.4903 8.4666 27.3757 8.52151 27.2434C8.57642 27.1111 8.59247 26.9664 8.56785 26.8256L8.23943 24.9488L9.63055 23.6195C9.73492 23.5198 9.80874 23.3935 9.84367 23.2548C9.8786 23.1161 9.87325 22.9706 9.82821 22.8347C9.78317 22.6989 9.70025 22.5781 9.58881 22.486C9.47738 22.3939 9.34188 22.3342 9.19764 22.3137L7.27508 22.0404L6.4157 20.3332C6.35119 20.2051 6.25139 20.0972 6.12758 20.0218C6.00377 19.9463 5.8609 19.9064 5.71512 19.9064C5.56934 19.9064 5.42646 19.9463 5.30266 20.0218C5.17885 20.0972 5.07905 20.2051 5.01453 20.3332L4.15516 22.0404L2.23201 22.314C2.08784 22.3346 1.95242 22.3943 1.84104 22.4864C1.72967 22.5784 1.64678 22.6992 1.60174 22.835C1.5567 22.9708 1.55131 23.1162 1.58617 23.2548C1.62102 23.3935 1.69475 23.5198 1.79901 23.6195ZM4.78572 23.4977C4.91106 23.4798 5.03009 23.4324 5.13256 23.3594C5.23502 23.2865 5.31785 23.1902 5.37391 23.0789L5.71492 22.4019L6.05584 23.0789C6.1119 23.1902 6.19473 23.2865 6.29719 23.3594C6.39966 23.4324 6.51869 23.4798 6.64402 23.4977L7.40643 23.6063L6.85486 24.1333C6.76416 24.2199 6.69632 24.3269 6.65719 24.445C6.61806 24.563 6.60882 24.6887 6.63025 24.811L6.76043 25.5551L6.0785 25.2038C5.96639 25.146 5.84163 25.1159 5.71497 25.1159C5.58831 25.1159 5.46356 25.146 5.35145 25.2038L4.66951 25.5551L4.79979 24.811C4.82122 24.6887 4.81198 24.563 4.77285 24.445C4.73372 24.3269 4.66588 24.2199 4.57518 24.1333L4.02352 23.6063L4.78572 23.4977Z" fill="#040100" fill-opacity="0.8"/>
<path d="M14.0625 27.5625H16.4062V29.0938H14.0625V27.5625Z" fill="#040100" fill-opacity="0.8"/>
<path d="M14.0625 31.3906H16.4062V32.9219H14.0625V31.3906Z" fill="#040100" fill-opacity="0.8"/>
<path d="M14.0625 35.2188H16.4062V36.75H14.0625V35.2188Z" fill="#040100" fill-opacity="0.8"/>
<path d="M14.0625 39.0469H16.4062V40.5781H14.0625V39.0469Z" fill="#040100" fill-opacity="0.8"/>
<path d="M45.3125 37.5156H43.75C42.9215 37.5165 42.1272 37.8395 41.5413 38.4136C40.9555 38.9877 40.6259 39.7662 40.625 40.5781V42.1547C40.0617 42.2428 39.5269 42.4576 39.0625 42.7824V39.0469H37.5V42.875H32.0312V25.2656H37.5V37.5156H39.0625V24.5C39.0625 24.2969 38.9802 24.1022 38.8337 23.9586C38.6872 23.815 38.4884 23.7344 38.2812 23.7344H32.0312V19.9062C32.0312 19.7032 31.9489 19.5085 31.8024 19.3649C31.6559 19.2213 31.4572 19.1406 31.25 19.1406H28.9062V17.6094C28.9062 17.4063 28.8239 17.2116 28.6774 17.068C28.5309 16.9244 28.3322 16.8438 28.125 16.8438H21.875C21.6678 16.8438 21.4691 16.9244 21.3226 17.068C21.1761 17.2116 21.0938 17.4063 21.0938 17.6094V19.1406H18.75C18.5428 19.1406 18.3441 19.2213 18.1976 19.3649C18.0511 19.5085 17.9688 19.7032 17.9688 19.9062V23.7344H11.7188C11.5115 23.7344 11.3128 23.815 11.1663 23.9586C11.0198 24.1022 10.9375 24.2969 10.9375 24.5V29.0937H12.5V25.2656H17.9688V42.875H12.5V30.625H10.9375V42.7824C10.4731 42.4576 9.93832 42.2428 9.375 42.1547V40.5781C9.37407 39.7662 9.04453 38.9877 8.45868 38.4136C7.87283 37.8395 7.07852 37.5165 6.25 37.5156H4.6875C3.85898 37.5165 3.06467 37.8395 2.47882 38.4136C1.89297 38.9877 1.56343 39.7662 1.5625 40.5781V46.7031C1.5625 46.9062 1.64481 47.1009 1.79132 47.2445C1.93784 47.3881 2.13655 47.4687 2.34375 47.4687H47.6562C47.8634 47.4687 48.0622 47.3881 48.2087 47.2445C48.3552 47.1009 48.4375 46.9062 48.4375 46.7031V40.5781C48.4366 39.7662 48.107 38.9877 47.5212 38.4136C46.9353 37.8395 46.141 37.5165 45.3125 37.5156ZM22.6562 18.375H27.3438V21.4375H22.6562V18.375ZM3.125 40.5781C3.12549 40.1722 3.29027 39.783 3.58319 39.4959C3.87611 39.2088 4.27325 39.0474 4.6875 39.0469H6.25C6.66425 39.0474 7.06139 39.2088 7.35431 39.4959C7.64723 39.783 7.81201 40.1722 7.8125 40.5781V42.1547C6.9414 42.2924 6.1487 42.7293 5.57617 43.3873C5.00365 44.0453 4.68864 44.8814 4.6875 45.7461V45.9375H3.125V40.5781ZM6.25 45.9375V45.7461C6.25065 45.1879 6.47721 44.6527 6.87998 44.258C7.28275 43.8633 7.82884 43.6413 8.39844 43.6406H8.78906C9.35866 43.6413 9.90475 43.8633 10.3075 44.258C10.7103 44.6527 10.9369 45.1879 10.9375 45.7461V45.9375H6.25ZM12.5 44.4062H17.9688V45.9375H12.5V44.4062ZM19.5312 20.6719H21.0938V22.2031C21.0938 22.4062 21.1761 22.6009 21.3226 22.7445C21.4691 22.8881 21.6678 22.9687 21.875 22.9687H28.125C28.3322 22.9687 28.5309 22.8881 28.6774 22.7445C28.8239 22.6009 28.9062 22.4062 28.9062 22.2031V20.6719H30.4688V45.9375H28.125V40.5781C28.125 40.3751 28.0427 40.1803 27.8962 40.0367C27.7497 39.8932 27.551 39.8125 27.3438 39.8125H22.6562C22.449 39.8125 22.2503 39.8932 22.1038 40.0367C21.9573 40.1803 21.875 40.3751 21.875 40.5781V45.9375H19.5312V20.6719ZM23.4375 45.9375V41.3437H26.5625V45.9375H23.4375ZM32.0312 44.4062H37.5V45.9375H32.0312V44.4062ZM39.0625 45.9375V45.7461C39.0631 45.1879 39.2897 44.6527 39.6925 44.258C40.0952 43.8633 40.6413 43.6413 41.2109 43.6406H41.6016C42.1712 43.6413 42.7173 43.8633 43.12 44.258C43.5228 44.6527 43.7494 45.1879 43.75 45.7461V45.9375H39.0625ZM46.875 45.9375H45.3125V45.7461C45.3114 44.8814 44.9964 44.0453 44.4238 43.3873C43.8513 42.7293 43.0586 42.2924 42.1875 42.1547V40.5781C42.188 40.1722 42.3528 39.783 42.6457 39.4959C42.9386 39.2088 43.3358 39.0474 43.75 39.0469H45.3125C45.7267 39.0474 46.1239 39.2088 46.4168 39.4959C46.7097 39.783 46.8745 40.1722 46.875 40.5781V45.9375Z" fill="#040100" fill-opacity="0.8"/>
<path d="M33.5938 35.2188H35.9375V36.75H33.5938V35.2188Z" fill="#040100" fill-opacity="0.8"/>
<path d="M33.5938 39.0469H35.9375V40.5781H33.5938V39.0469Z" fill="#040100" fill-opacity="0.8"/>
<path d="M33.5938 27.5625H35.9375V29.0938H33.5938V27.5625Z" fill="#040100" fill-opacity="0.8"/>
<path d="M33.5938 31.3906H35.9375V32.9219H33.5938V31.3906Z" fill="#040100" fill-opacity="0.8"/>
</svg>
