<svg width="512" height="512" viewBox="0 0 512 512" fill="none" xmlns="http://www.w3.org/2000/svg">
<g clip-path="url(#clip0)">
<path d="M460.2 485.564C446.41 364.326 466.868 327.039 325.475 311.564L304.857 294.18V266.982C304.857 266.64 304.826 266.306 304.782 265.976C327.719 251.177 343.544 226.266 345.912 197.599C390.112 201.762 377.615 160.177 379.32 132.192C378.639 113.584 359.294 116.368 346.225 116.427V98.3144C355.177 98.7199 362.8 91.5424 362.772 82.5489C360.958 73.7013 366.94 39.6943 358.155 33.4607L329.908 5.21387C328.489 -4.35488 199.792 2.56998 193.236 0.592304C182.73 -1.24454 161.102 28.3567 153.839 33.4597C150.862 36.4382 149.223 40.3975 149.223 44.6085V82.5489C149.2 91.5394 156.813 98.7229 165.771 98.3144V116.426C152.677 116.385 133.377 113.555 132.677 132.192C134.376 160.211 121.9 201.761 166.084 197.598C168.453 226.266 184.277 251.176 207.214 265.975C207.17 266.305 207.139 266.64 207.139 266.981V294.179L186.521 311.563C136.639 319.954 67.1697 323.067 61.5393 388.172C61.5373 388.169 51.7978 485.563 51.7978 485.563C50.1237 499.273 61.9029 512.3 75.7176 511.994H90.5272C100.245 512.102 100.249 496.893 90.5262 497.012C82.6675 496.646 65.6065 500.023 66.7072 487.053C77.0151 435.625 58.0414 342.96 132.678 336.279V497.011C126.752 497.362 112.629 494.551 113.002 504.502C113.001 508.639 116.354 511.993 120.492 511.993H436.282C450.077 512.298 461.888 499.277 460.2 485.564V485.564ZM364.337 409.646L346.225 400.59V330.439L364.337 333.636V409.646ZM298.744 308.623L312.985 320.63L293.558 362.534L267.642 352.168L298.744 308.623ZM363.555 131.408C365.588 131.576 363.725 172.535 364.338 173.559C364.32 183.484 353.301 182.942 346.225 182.614V131.407H363.555V131.408ZM164.436 44.0552C164.981 43.8245 192.501 15.3859 193.235 15.5787C193.982 15.8364 318.795 15.1172 319.312 15.8064C319.313 15.8074 347.561 44.0542 347.561 44.0542C347.709 44.202 347.791 44.3988 347.791 44.6076V50.2369H164.206C164.291 49.9273 163.98 44.0672 164.436 44.0552ZM164.206 82.5489V65.2193H347.791V82.5489C347.229 84.0452 164.8 84.0402 164.206 82.5489ZM147.659 173.559V132.191C147.659 131.759 148.011 131.408 148.441 131.408H165.772V182.615C158.684 182.937 147.682 183.493 147.659 173.559V173.559ZM180.754 190.106V98.3144H331.243V190.106C329.478 288.999 182.505 288.971 180.754 190.106ZM255.999 280.333C267.975 280.333 279.41 277.982 289.876 273.727V295.263L255.999 342.69L222.121 295.262V273.726C232.587 277.982 244.023 280.333 255.999 280.333V280.333ZM213.253 308.623L244.356 352.168L218.441 362.534L199.014 320.63L213.253 308.623ZM165.772 330.439V400.59L147.659 409.646V333.636L165.772 330.439ZM147.659 426.397L175.031 412.711H290.657C294.795 412.711 298.148 409.357 298.148 405.22C298.148 401.082 294.795 397.728 290.657 397.728H180.754V327.795L185.437 326.969C217.491 387.363 193.834 388.597 255.999 363.645C318.145 388.597 294.518 387.358 326.561 326.969L331.243 327.795V397.728H320.622C310.906 397.588 310.899 412.853 320.623 412.711C320.622 412.711 336.966 412.711 336.966 412.711L364.338 426.397V497.012H313.132V471.409C313.132 467.272 309.778 463.918 305.64 463.918H206.357C202.219 463.918 198.866 467.272 198.866 471.409V497.012H147.659V426.397ZM298.149 497.012H213.848V478.9H298.149V497.012ZM442.995 494.032C441.542 499.976 383.752 495.878 379.32 497.012C379.32 457.287 379.32 376.212 379.32 336.28C408.145 338.69 432.874 360.272 435.551 389.661C434.639 393.125 449.137 493.894 442.995 494.032Z" fill="#040100" fill-opacity="0.8"/>
<path d="M222.903 141.247C218.765 141.247 215.412 144.601 215.412 148.738C215.206 154.554 214.45 164.646 222.904 164.503C227.042 164.503 230.395 161.15 230.395 157.011C230.601 151.195 231.357 141.104 222.903 141.247Z" fill="#040100" fill-opacity="0.8"/>
<path d="M289.092 164.503C293.231 164.503 296.584 161.148 296.584 157.011C296.79 151.195 297.545 141.103 289.091 141.247C284.954 141.247 281.601 144.6 281.601 148.738C281.395 154.555 280.64 164.646 289.092 164.503Z" fill="#040100" fill-opacity="0.8"/>
</g>
<defs>
<clipPath id="clip0">
<rect width="512" height="512" fill="white"/>
</clipPath>
</defs>
</svg>
