<svg width="13" height="12" viewBox="0 0 13 12" fill="none" xmlns="http://www.w3.org/2000/svg">
<g clip-path="url(#clip0)">
<path d="M12.966 4.6027C12.8804 4.35971 12.6469 4.18768 12.3718 4.1647L8.61908 3.85021L7.13598 0.645079C7.02648 0.409602 6.77734 0.257622 6.50002 0.257622C6.2227 0.257622 5.97345 0.409602 5.86465 0.645079L4.38155 3.85021L0.628238 4.1647C0.353102 4.18814 0.120119 4.36017 0.0340279 4.6027C-0.0515677 4.84568 0.0274818 5.11219 0.235569 5.28065L3.07232 7.57674L2.23591 10.9773C2.17471 11.2273 2.27985 11.4858 2.5046 11.6358C2.6254 11.7168 2.76733 11.7573 2.90976 11.7573C3.03216 11.7573 3.15465 11.7273 3.26405 11.6668L6.50002 9.8808L9.73539 11.6668C9.97274 11.7978 10.2712 11.7858 10.4954 11.6358C10.7202 11.4858 10.8253 11.2273 10.7641 10.9773L9.92771 7.57674L12.7645 5.28065C12.9725 5.11219 13.0516 4.84623 12.966 4.6027V4.6027Z" fill="#757251"/>
</g>
<defs>
<clipPath id="clip0">
<rect width="13" height="12" fill="white"/>
</clipPath>
</defs>
</svg>
