<svg id="Layer_1" enable-background="new 0 0 464.058 464.058" height="512" viewBox="0 0 464.058 464.058" width="512" xmlns="http://www.w3.org/2000/svg"><path d="m359.675 122.658c-83.452-23.228-171.741-23.27-255.3 0-3.13 15.36-6.18 34.19-7.92 55.81-99.763-30.466-88.636-84.861 21.66-110.39 134.392-31.077 317.91 1.933 317.91 58.08 0 20.8-26.45 39.49-68.43 52.31-1.74-21.62-4.79-40.45-7.92-55.81z" fill="#d6f4fc"/><path d="m366.515 264.158c-.75 6.98-10.85 7.25-11.9.31-1.55-10.18-3.85-20.06-6.85-29.569-41.091 86.838-162.663 96.127-218.56 21.45-4.45 33.229-3.68 67.31.91 100.97.98 7.2-9.34 9.58-11.65 2.689-25.56-76.27-30.34-157.58-14.09-237.35 83.45-23.24 171.74-23.26 255.3 0 9.38 46.03 11.96 93.69 6.84 141.5z" fill="#ffdfba"/><path d="m366.515 264.158c-.75 6.98-10.85 7.25-11.9.31-1.55-10.18-3.85-20.06-6.85-29.569-41.091 86.838-162.663 96.127-218.56 21.45-4.45 33.229-3.68 67.31.91 100.97.98 7.2-9.34 9.58-11.65 2.689-25.56-76.27-30.34-157.58-14.09-237.35 83.45-23.24 171.74-23.26 255.3 0 9.38 46.03 11.96 93.69 6.84 141.5z" fill="#ffdfba"/><path d="m354.615 264.47c-12.476-82.123-73.06-146.151-164.818-139.47-4.684.341-9.014 2.689-11.779 6.485-47.903 65.768-58.795 145.876-47.905 225.832.98 7.199-9.335 9.577-11.644 2.688-25.561-76.264-30.348-157.579-14.094-237.347 83.448-23.24 171.738-23.26 255.3 0 9.381 46.035 11.96 93.689 6.839 141.504-.747 6.978-10.845 7.246-11.899.308z" fill="#aaa"/><path d="m366.515 264.158c-.75 6.98-10.85 7.25-11.9.31-.29-1.93-.61-3.85-.97-5.75 1.49-.859 2.64-2.38 2.87-4.56 4.83-45.14 2.8-90.15-5.34-133.78 2.84.73 5.67 1.49 8.5 2.28 9.38 46.03 11.96 93.69 6.84 141.5z" fill="#999"/><path d="m345.925 68.078c-68.657-15.876-158.922-15.93-227.81 0 46.689-90.79 181.163-90.751 227.81 0z" fill="#e8f8fc"/><path d="m198.404 208.858c-8.836 0-16-7.163-16-16v-5.11c0-8.837 7.164-16 16-16s16 7.163 16 16v5.11c0 8.837-7.163 16-16 16z" fill="#aaa"/><path d="m265.645 208.858c-8.836 0-16-7.163-16-16v-5.11c0-8.837 7.164-16 16-16s16 7.163 16 16v5.11c0 8.837-7.164 16-16 16z" fill="#aaa"/><path d="m300.295 18.738c-45.639-17.894-113.575-10.753-152.59 43.66-10.36 1.62-20.25 3.52-29.59 5.68 36.98-71.91 125.822-84.154 182.18-49.34z" fill="#f1fafc"/><path d="m118.465 360.008c-25.56-76.27-30.34-157.58-14.09-237.35 4.84-1.35 9.7-2.62 14.57-3.81-14.45 72.64-11.47 146.5 8.75 216.619.61 7.29 1.43 14.58 2.42 21.851.98 7.2-9.34 9.58-11.65 2.69z" fill="#b2b2b2"/><path d="m321.505 182.928c-28.83-31.289-70.39-49.659-121.71-45.93-4.68.34-9.01 2.69-11.78 6.49-26.96 37.01-42.65 79.21-48.78 124.66-3.58-3.721-6.93-7.66-10.03-11.8 6.11-45.53 21.81-87.801 48.81-124.86 2.77-3.8 7.1-6.15 11.78-6.49 57.57-4.19 102.87 19.45 131.71 57.93z" fill="#faccaf"/><path d="m412.391 445.312c-5.687-31.642-25.512-58.367-52.696-73.414-20.559-11.398-38.1-13.11-56.67-13.11-17.867 0-143.043 0-147.77 0-51.622 0-94.737 37.232-103.596 86.524-1.757 9.777 5.834 18.746 15.768 18.746h329.196c9.933 0 17.525-8.968 15.768-18.746z" fill="#ffe773"/><path d="m303.025 358.788c0 40.749-32.811 71.37-71 71.37-38.24 0-71-30.676-71-71.37z" fill="#ffdfba"/><path d="m257.145 425.578c-45.934 17.408-96.12-16.188-96.12-66.79h16.09c2.055 40.813 38.419 72.076 80.03 66.79z" fill="#faccaf"/><path d="m163.955 379.388c-46.312 4.943-83.46 39.883-92.06 84.67h-4.47c-9.93 0-17.52-8.97-15.77-18.75 8.858-49.253 51.95-86.52 103.6-86.52h5.77c0 6.955.863 13.665 2.93 20.6z" fill="#ffec8f"/><path d="m300.095 379.388c46.312 4.943 83.46 39.883 92.06 84.67h4.47c9.93 0 17.52-8.97 15.77-18.75-8.858-49.253-51.95-86.52-103.6-86.52h-5.77c0 6.955-.864 13.665-2.93 20.6z" fill="#fadf5a"/></svg>