<svg width="130" height="141" viewBox="0 0 130 141" fill="none" xmlns="http://www.w3.org/2000/svg">
<path d="M102.685 82.9816C101.799 82.0214 101.041 81.1985 100.282 80.3755C89.1536 68.3055 66.2645 69.5399 65.3793 69.5399H10.3695C9.35787 69.5399 8.47266 70.5 8.47266 71.5973C8.47266 72.6946 9.35787 73.6547 10.3695 73.6547H64.4941L73.9785 87.0963C74.1049 87.3707 78.4046 93.68 84.854 94.0915C86.7509 94.2286 89.9123 94.2286 93.3267 94.2286C99.7762 94.2286 106.858 94.0915 107.237 94.0915H107.364C111.031 98.6177 113.94 103.144 112.801 105.887C112.169 107.533 109.134 110.413 96.1088 110.413H11.6341C10.6225 110.413 9.73725 111.374 9.73725 112.471C9.73725 113.568 10.6225 114.528 11.6341 114.528H96.1088C108.122 114.528 114.572 112.197 116.342 107.396C118.998 100.264 110.399 91.074 102.685 82.9816ZM85.1069 89.8395C80.4279 89.5652 77.14 84.6275 77.0135 84.4903L69.2995 73.3804C76.0018 73.5176 90.2917 75.0263 97.6263 82.9816C98.3851 83.8045 99.2703 84.7646 100.156 85.5876C101.294 86.822 102.685 88.1936 103.949 89.7024C98.8909 89.9767 89.1536 90.1139 85.1069 89.8395Z" fill="#FFFBEE"/>
<path d="M128.103 118.232H1.89689C0.885214 118.232 0 119.192 0 120.289C0 121.386 0.885214 122.346 1.89689 122.346H128.103C129.115 122.346 130 121.386 130 120.289C130 119.192 129.115 118.232 128.103 118.232Z" fill="#FFFBEE"/>
<path d="M66.6439 92.034L55.5155 78.0438C55.1361 77.6323 54.6303 77.358 54.1245 77.358H11.6342C10.6225 77.358 9.7373 78.3181 9.7373 79.4154V93.68C9.7373 94.7772 10.6225 95.7374 11.6342 95.7374H65.3793C66.391 95.7374 67.2762 94.7772 67.2762 93.68C67.2762 92.9942 67.0233 92.4455 66.6439 92.034ZM13.5311 91.6226V81.4728H22.0038L29.9708 91.6226H13.5311ZM34.9027 91.6226L26.9357 81.4728H37.6848L45.6517 91.6226H34.9027ZM50.5836 91.6226L42.6167 81.4728H53.2392L61.3326 91.6226H50.5836Z" fill="#FFFBEE"/>
<path d="M84.095 31.5467H66.7701C65.8849 24.2772 60.0678 18.6537 53.239 18.6537C46.0308 18.6537 40.0872 24.8259 39.5814 32.5068C38.0639 31.821 36.4199 31.5467 34.6495 31.5467C27.6942 31.5467 22.0036 37.1702 21.1184 44.4397H5.81681C4.80514 44.4397 3.91992 45.3998 3.91992 46.4971C3.91992 47.4572 4.80514 48.4173 5.81681 48.4173H22.7623C23.774 48.4173 24.6592 47.4572 24.6592 46.3599C24.6592 40.4621 29.0853 35.5243 34.6495 35.5243C40.0872 35.5243 44.6398 40.3249 44.6398 46.3599C44.6398 47.4572 45.525 48.4173 46.5367 48.4173H65.5055C66.5172 48.4173 67.4024 47.4572 67.4024 46.3599C67.4024 45.2626 66.5172 44.3025 65.5055 44.3025H48.3071C47.8012 40.3249 45.7779 36.8959 42.9958 34.5642C43.1223 34.2899 43.2487 33.8784 43.2487 33.6041C43.2487 27.7062 47.6748 22.7685 53.239 22.7685C58.6767 22.7685 63.2293 27.5691 63.2293 33.6041C63.2293 34.7014 64.1145 35.6615 65.1261 35.6615H84.095C85.1067 35.6615 85.9919 34.7014 85.9919 33.6041C85.9919 32.5068 85.1067 31.5467 84.095 31.5467Z" fill="#FFFBEE"/>
<path d="M50.8363 54.5895H5.81681C4.80514 54.5895 3.91992 55.5496 3.91992 56.6469C3.91992 57.7441 4.80514 58.7043 5.81681 58.7043H50.8363C51.8479 58.7043 52.7332 57.7441 52.7332 56.6469C52.7332 55.5496 51.8479 54.5895 50.8363 54.5895Z" fill="#FFFBEE"/>
</svg>
