<svg width="512" height="512" viewBox="0 0 512 512" fill="none" xmlns="http://www.w3.org/2000/svg">
<g clip-path="url(#clip0)">
<path d="M286.198 149.087H372.939C395.24 149.087 415.844 160.228 428.054 178.889C429.924 181.747 431.755 184.684 433.495 187.62C435.608 191.183 440.209 192.358 443.772 190.245C447.335 188.132 448.51 183.531 446.397 179.968C444.544 176.843 442.595 173.717 440.605 170.676C425.613 147.765 400.317 134.087 372.938 134.087H286.197C277.029 134.087 269.57 141.546 269.57 150.715V260.899C269.57 270.067 277.029 277.526 286.197 277.526H462.021C470.187 277.526 476.83 270.888 476.83 262.729C476.83 261.812 476.744 260.886 476.573 259.979C473.51 243.664 468.767 227.606 462.477 212.251C460.906 208.418 456.529 206.585 452.693 208.154C448.86 209.724 447.026 214.105 448.596 217.938C454.476 232.291 458.915 247.297 461.792 262.526H286.198C285.301 262.526 284.571 261.796 284.571 260.899V150.715C284.571 149.817 285.301 149.087 286.198 149.087V149.087Z" fill="#040100" fill-opacity="0.8"/>
<path d="M466.279 152.185C445.027 119.706 409.166 100.315 370.352 100.315H79.663C75.521 100.315 72.163 103.673 72.163 107.815C72.163 111.957 75.521 115.315 79.663 115.315H370.352C404.088 115.315 435.256 132.169 453.727 160.398C480.891 201.912 495.767 249.811 496.926 299.297H255.97V270.026V152.54C255.97 142.365 247.692 134.087 237.517 134.087H187.771H138.025C127.85 134.087 119.572 142.365 119.572 152.54V299.297H15V277.526H89.343C98.511 277.526 105.97 270.067 105.97 260.899V150.715C105.97 141.547 98.511 134.087 89.343 134.087H15V116.942C15 116.045 15.73 115.315 16.627 115.315H44.534C48.676 115.315 52.034 111.957 52.034 107.815C52.034 103.673 48.676 100.315 44.534 100.315H16.627C7.459 100.315 0 107.774 0 116.942V337.546C0 346.714 7.459 354.174 16.627 354.174H28.445C28.852 359.716 30.652 364.874 33.497 369.302H11.5C5.159 369.302 0 374.461 0 380.802V400.185C0 406.526 5.159 411.685 11.5 411.685H500.5C506.841 411.685 512 406.526 512 400.185V380.802C512 374.461 506.841 369.302 500.5 369.302H443.103C445.949 364.873 447.748 359.715 448.155 354.174H490.808C502.493 354.174 511.999 344.668 511.999 332.983V306.798V305.566C512 250.937 496.19 197.898 466.279 152.185V152.185ZM383.286 354.174C383.693 359.716 385.493 364.874 388.338 369.302H358.064C360.91 364.873 362.709 359.715 363.116 354.174H383.286ZM330.682 369.302C321.829 369.302 314.488 362.708 313.313 354.174H348.051C346.875 362.708 339.534 369.302 330.682 369.302ZM298.246 354.174C298.653 359.716 300.453 364.874 303.298 369.302H88.263C91.109 364.873 92.908 359.715 93.315 354.174H298.246ZM240.97 339.174H195.271V277.527H240.97V339.174ZM180.271 339.174H134.572C134.572 333.05 134.572 284.625 134.572 277.527H180.271V339.174ZM240.97 152.54V262.526H195.271V149.087H237.517C239.42 149.087 240.97 150.636 240.97 152.54V152.54ZM134.572 152.54C134.572 150.636 136.121 149.087 138.025 149.087H180.271V262.526H134.572V152.54ZM89.343 149.087C90.24 149.087 90.97 149.817 90.97 150.715V260.899C90.97 261.796 90.24 262.526 89.343 262.526H15V149.087H89.343ZM15 337.546V314.297H119.572V339.173C109.357 339.173 27.993 339.173 16.627 339.173C15.73 339.174 15 338.443 15 337.546V337.546ZM43.511 354.174H78.248C77.073 362.709 69.732 369.302 60.879 369.302C52.026 369.302 44.687 362.708 43.511 354.174ZM497 396.685H15V384.302H497V396.685ZM415.721 369.302C406.868 369.302 399.528 362.708 398.352 354.174H433.089C431.914 362.708 424.573 369.302 415.721 369.302ZM497 332.982C497 336.396 494.223 339.173 490.809 339.173C485.517 339.173 259.978 339.173 255.97 339.173V314.297H497V332.982Z" fill="#040100" fill-opacity="0.8"/>
</g>
<defs>
<clipPath id="clip0">
<rect width="512" height="512" fill="white"/>
</clipPath>
</defs>
</svg>
